# Blender 5.0.0
# www.blender.org
mtllib Laser.mtl
o Circle
v 0.066469 0.268413 0.001199
v 0.210946 0.231120 0.001199
v 0.316711 0.129233 0.001199
v 0.355423 -0.009947 0.001199
v 0.316711 -0.149128 0.001199
v 0.210946 -0.251015 0.001199
v 0.066469 -0.288308 0.001199
v -0.078009 -0.251015 0.001199
v -0.183773 -0.149128 0.001199
v -0.222486 -0.009947 0.001199
v -0.183773 0.129233 0.001199
v -0.078009 0.231120 0.001199
v 0.066496 0.290060 -49.998802
v 0.316496 0.249867 -49.998802
v 0.499509 0.140060 -49.998802
v 0.566496 -0.009940 -49.998802
v 0.499509 -0.159940 -49.998802
v 0.316496 -0.269748 -49.998802
v 0.066496 -0.309940 -49.998802
v -0.183504 -0.269748 -49.998802
v -0.366517 -0.159940 -49.998802
v -0.433504 -0.009940 -49.998802
v -0.366517 0.140060 -49.998802
v -0.183504 0.249867 -49.998802
vn -0.0000 -0.0000 -1.0000
vn -0.9392 -0.3433 -0.0037
vn 0.9392 -0.3433 -0.0037
vn 0.1927 0.9812 -0.0006
vn -0.9392 0.3433 -0.0037
vn 0.5912 -0.8065 -0.0019
vn -0.1927 -0.9812 -0.0006
vn 0.5912 0.8065 -0.0019
vn -0.5912 0.8065 -0.0019
vn 0.1927 -0.9812 -0.0006
vn -0.5912 -0.8065 -0.0019
vn 0.9392 0.3433 -0.0037
vn -0.1927 0.9812 -0.0006
vn -0.0000 -0.0000 1.0000
vt 0.000000 0.000000
s 0
usemtl Material.002
f 2/1/1 12/1/1 1/1/1
f 3/1/1 12/1/1 2/1/1
f 11/1/1 12/1/1 4/1/1
f 4/1/1 10/1/1 11/1/1
f 5/1/1 10/1/1 4/1/1
f 5/1/1 9/1/1 10/1/1
f 6/1/1 9/1/1 5/1/1
f 6/1/1 8/1/1 9/1/1
f 7/1/1 8/1/1 6/1/1
f 4/1/1 12/1/1 3/1/1
f 4/1/2 3/1/2 15/1/2 16/1/2
f 11/1/3 10/1/3 22/1/3 23/1/3
f 8/1/4 7/1/4 19/1/4 20/1/4
f 5/1/5 4/1/5 16/1/5 17/1/5
f 12/1/6 11/1/6 23/1/6 24/1/6
f 2/1/7 1/1/7 13/1/7 14/1/7
f 9/1/8 8/1/8 20/1/8 21/1/8
f 6/1/9 5/1/9 17/1/9 18/1/9
f 1/1/10 12/1/10 24/1/10 13/1/10
f 3/1/11 2/1/11 14/1/11 15/1/11
f 10/1/12 9/1/12 21/1/12 22/1/12
f 7/1/13 6/1/13 18/1/13 19/1/13
f 14/1/14 13/1/14 24/1/14 23/1/14 22/1/14 21/1/14 20/1/14 19/1/14 18/1/14 17/1/14 16/1/14 15/1/14
