# Blender 4.5.0
# www.blender.org
mtllib ammo.mtl
o Cylinder.001
v 0.000000 0.000000 -0.023136
v 0.000000 -0.009622 0.016864
v 0.000000 -0.002939 -0.016979
v 0.002569 -0.001813 -0.017014
v 0.002569 0.001813 -0.017014
v 0.000000 0.002939 -0.016979
v -0.002569 0.001813 -0.017014
v -0.002569 -0.001813 -0.017014
v -0.001985 -0.009327 0.011504
v 0.001985 -0.009327 0.011504
v 0.008660 -0.002813 0.011504
v 0.008944 -0.005000 0.016864
v 0.006675 -0.006146 0.011504
v 0.006675 0.006146 0.011504
v 0.008660 0.005000 0.016864
v 0.008660 0.002813 0.011504
v -0.001985 0.009327 0.011504
v 0.000000 0.009622 0.016864
v 0.001985 0.009327 0.011504
v -0.008660 0.002813 0.011504
v -0.008944 0.005000 0.016864
v -0.006675 0.006146 0.011504
v -0.006675 -0.006146 0.011504
v -0.008944 -0.005000 0.016864
v -0.008660 -0.002813 0.011504
v -0.001856 -0.008753 0.004893
v 0.000000 -0.008129 -0.004258
v 0.001856 -0.008753 0.004893
v 0.008099 -0.002532 0.004893
v 0.006243 -0.005747 0.004893
v 0.007040 -0.004064 -0.004258
v 0.006243 0.005747 0.004893
v 0.008099 0.002532 0.004893
v 0.007040 0.004064 -0.004258
v -0.001856 0.008753 0.004893
v 0.001856 0.008753 0.004893
v 0.000000 0.008129 -0.004258
v -0.008099 0.002532 0.004893
v -0.006243 0.005747 0.004893
v -0.007040 0.004064 -0.004258
v -0.006243 -0.005747 0.004893
v -0.008099 -0.002532 0.004893
v -0.007040 -0.004064 -0.004258
v -0.000065 -0.000031 0.016864
vn -0.3630 -0.8409 -0.4014
vn 0.3630 -0.8409 -0.4014
vn -0.3630 0.8409 -0.4014
vn 0.3630 0.8409 -0.4014
vn 0.9221 -0.0000 -0.3869
vn -0.9221 -0.0000 -0.3869
vn -0.0000 -0.9985 -0.0549
vn 0.8327 -0.4959 -0.2464
vn 0.8411 0.5008 -0.2044
vn -0.0000 0.9985 -0.0549
vn -0.8327 0.4959 -0.2464
vn -0.8327 -0.4959 -0.2464
vn -0.0000 -0.9977 -0.0680
vn 0.8659 -0.4999 -0.0165
vn 0.8659 0.4999 -0.0165
vn -0.0000 0.9977 -0.0680
vn -0.8659 0.4999 -0.0165
vn -0.8659 -0.4999 -0.0165
vn -0.4959 -0.8666 0.0557
vn -0.9986 -0.0000 -0.0529
vn -0.4959 0.8666 0.0557
vn 0.5034 0.8613 0.0684
vn 0.9995 0.0181 -0.0264
vn 0.4959 -0.8666 0.0557
vn -0.5212 -0.8424 -0.1364
vn -0.9934 -0.0000 -0.1150
vn -0.5212 0.8424 -0.1364
vn 0.5212 0.8424 -0.1364
vn 0.9934 -0.0000 -0.1150
vn 0.5212 -0.8424 -0.1364
vn -0.0000 -0.9963 -0.0865
vn -0.8590 -0.5039 -0.0905
vn 0.8590 -0.5039 -0.0905
vn 0.8590 0.5039 -0.0905
vn -0.0000 0.9963 -0.0865
vn -0.8590 0.5039 -0.0905
vn -0.5612 -0.8234 -0.0844
vn 0.5612 -0.8234 -0.0844
vn 0.9964 -0.0000 -0.0846
vn 0.5612 0.8234 -0.0844
vn -0.5612 0.8234 -0.0844
vn -0.9964 -0.0000 -0.0846
vn 0.4490 -0.8334 -0.3222
vn -0.4490 -0.8334 -0.3222
vn 0.9437 -0.0000 -0.3308
vn 0.4490 0.8334 -0.3222
vn -0.4490 0.8334 -0.3222
vn -0.9437 -0.0000 -0.3308
vn -0.0000 -0.0000 1.0000
vt 0.196146 0.110220
vt 0.155718 0.102692
vt 0.205662 0.005603
vt 0.237269 0.110110
vt 0.527880 0.110095
vt 0.486772 0.110190
vt 0.496251 0.005603
vt 0.446328 0.102687
vt 0.720609 0.109277
vt 0.662810 0.108969
vt 0.692321 0.005603
vt 0.925341 0.108615
vt 0.867541 0.108615
vt 0.896441 0.005603
vt 0.122526 0.570370
vt 0.185537 0.576102
vt 0.146345 0.657739
vt 0.644381 0.573539
vt 0.609100 0.658120
vt 0.591372 0.567320
vt 0.787279 0.568363
vt 0.768496 0.658120
vt 0.734036 0.574016
vt 0.476233 0.576055
vt 0.437042 0.657709
vt 0.413222 0.570331
vt 0.851613 0.572940
vt 0.816751 0.657943
vt 0.798486 0.567692
vt 0.994397 0.567692
vt 0.976132 0.657943
vt 0.941270 0.572940
vt 0.134104 0.465728
vt 0.176720 0.323800
vt 0.193029 0.471087
vt 0.649376 0.468389
vt 0.598246 0.462565
vt 0.625712 0.321834
vt 0.781450 0.463540
vt 0.730100 0.468818
vt 0.755265 0.322524
vt 0.483721 0.471028
vt 0.424796 0.465676
vt 0.467409 0.323725
vt 0.856079 0.467547
vt 0.804838 0.462640
vt 0.831664 0.320919
vt 0.988045 0.462640
vt 0.936804 0.467547
vt 0.961219 0.320918
vt 0.048917 0.554352
vt 0.005603 0.631392
vt 0.551482 0.573625
vt 0.580166 0.657248
vt 0.339568 0.554375
vt 0.300738 0.631866
vt 0.260828 0.573627
vt 0.289531 0.657217
vt 0.065276 0.450659
vt 0.066057 0.301822
vt 0.554098 0.468668
vt 0.580166 0.322129
vt 0.355926 0.450666
vt 0.356689 0.301829
vt 0.263446 0.468684
vt 0.289531 0.322149
vt 0.005603 0.905938
vt 0.005603 0.746493
vt 0.146885 0.822695
vt 0.141487 0.668946
vt 0.286069 0.738536
vt 0.290589 0.897853
vt 0.150185 0.975528
s 0
usemtl Material.002
f 3/1/1 8/2/1 1/3/1
f 4/4/2 3/1/2 1/3/2
f 7/5/3 6/6/3 1/7/3
f 6/6/4 5/8/4 1/7/4
f 5/9/5 4/10/5 1/11/5
f 8/12/6 7/13/6 1/14/6
f 9/15/7 10/16/7 2/17/7
f 11/18/8 12/19/8 13/20/8
f 14/21/9 15/22/9 16/23/9
f 17/24/10 18/25/10 19/26/10
f 20/27/11 21/28/11 22/29/11
f 23/30/12 24/31/12 25/32/12
f 26/33/13 27/34/13 28/35/13
f 29/36/14 30/37/14 31/38/14
f 32/39/15 33/40/15 34/41/15
f 35/42/16 36/43/16 37/44/16
f 38/45/17 39/46/17 40/47/17
f 41/48/18 42/49/18 43/50/18
f 23/51/19 9/15/19 2/17/19 24/52/19
f 20/27/20 25/32/20 24/31/20 21/28/20
f 17/24/21 22/53/21 21/54/21 18/25/21
f 14/55/22 19/26/22 18/25/22 15/56/22
f 11/18/23 16/23/23 15/22/23 12/19/23
f 10/16/24 13/57/24 12/58/24 2/17/24
f 26/33/25 41/59/25 43/60/25 27/34/25
f 42/49/26 38/45/26 40/47/26 43/50/26
f 39/61/27 35/42/27 37/44/27 40/62/27
f 36/43/28 32/63/28 34/64/28 37/44/28
f 33/40/29 29/36/29 31/38/29 34/41/29
f 30/65/30 28/35/30 27/34/30 31/66/30
f 28/35/31 10/16/31 9/15/31 26/33/31
f 25/32/32 42/49/32 41/48/32 23/30/32
f 29/36/33 11/18/33 13/20/33 30/37/33
f 32/39/34 14/21/34 16/23/34 33/40/34
f 35/42/35 17/24/35 19/26/35 36/43/35
f 38/45/36 20/27/36 22/29/36 39/46/36
f 9/15/37 23/51/37 41/59/37 26/33/37
f 13/57/38 10/16/38 28/35/38 30/65/38
f 16/23/39 11/18/39 29/36/39 33/40/39
f 19/26/40 14/55/40 32/63/40 36/43/40
f 22/53/41 17/24/41 35/42/41 39/61/41
f 25/32/42 20/27/42 38/45/42 42/49/42
f 3/1/43 4/4/43 31/66/43 27/34/43
f 8/2/44 3/1/44 27/34/44 43/60/44
f 4/10/45 5/9/45 34/41/45 31/38/45
f 5/8/46 6/6/46 37/44/46 34/64/46
f 6/6/47 7/5/47 40/62/47 37/44/47
f 7/13/48 8/12/48 43/50/48 40/47/48
f 12/67/49 15/68/49 44/69/49
f 15/68/49 18/70/49 44/69/49
f 18/70/49 21/71/49 44/69/49
f 21/71/49 24/72/49 44/69/49
f 24/72/49 2/73/49 44/69/49
f 2/73/49 12/67/49 44/69/49
o 
v 0.000000 0.000000 0.000000
