# Blender 5.0.0
# www.blender.org
mtllib rock.mtl
o Cube
v -0.415345 0.810264 -0.384444
v -0.534000 -0.002782 -0.377142
v -0.346211 0.688427 0.297607
v -0.516837 -0.038525 0.464610
v 0.372520 0.837203 -0.380156
v 0.549905 -0.002782 -0.520862
v 0.327284 0.813510 0.369724
v 0.533941 0.015386 0.532923
v -0.366276 0.855859 -0.035108
v -0.551802 0.391198 -0.416598
v -0.534000 -0.002782 -0.000000
v -0.521455 0.406329 0.496293
v 0.070804 0.737198 0.482882
v 0.000000 -0.002782 0.747734
v 0.616818 0.361309 0.471969
v 0.493670 0.868095 -0.014896
v 0.652681 -0.002782 -0.000000
v 0.537318 0.370294 -0.599096
v 0.000000 0.854605 -0.534000
v 0.000000 -0.002782 -0.630142
v 0.000000 -0.002782 -0.000000
v -0.085629 0.961476 -0.030331
v -0.081544 0.399953 -0.650677
v 0.697881 0.382192 -0.158992
v 0.063145 0.406136 0.875771
v -0.598927 0.363962 0.032824
vn -0.9905 -0.0930 0.1017
vn 0.4841 -0.1699 0.8584
vn 0.9575 -0.1228 -0.2609
vn -0.4323 -0.1212 -0.8935
vn 0.1423 0.9767 -0.1607
vn -0.0000 -1.0000 -0.0000
vn 0.0182 -0.9997 0.0159
vn 0.0421 -0.9987 -0.0300
vn -0.2429 0.9531 -0.1808
vn -0.3083 0.8371 0.4519
vn 0.0542 0.9534 0.2967
vn -0.3975 0.2496 -0.8830
vn 0.2059 0.3512 -0.9134
vn 0.1328 -0.1093 -0.9851
vn 0.8376 0.4451 -0.3167
vn 0.8628 0.4433 0.2432
vn 0.9784 -0.1210 0.1677
vn 0.4187 0.5881 0.6920
vn -0.3767 0.6989 0.6080
vn -0.5085 -0.1245 0.8520
vn -0.8424 0.5069 0.1828
vn -0.9269 0.3753 -0.0064
vn -0.9923 -0.1084 -0.0601
vt 0.171120 0.621718
vt 0.293601 0.616035
vt 0.298831 0.773123
vt 0.148873 0.777516
vt 0.547253 0.949327
vt 0.405599 0.913791
vt 0.430602 0.848440
vt 0.548548 0.821976
vt 0.547255 0.610450
vt 0.419713 0.671199
vt 0.405599 0.494627
vt 0.528190 0.460496
vt 0.863515 0.677479
vt 0.998088 0.649521
vt 0.983300 0.811772
vt 0.852957 0.819701
vt 0.603041 0.303922
vt 0.786423 0.238003
vt 0.786423 0.367953
vt 0.683665 0.456671
vt 0.181848 0.214267
vt 0.001912 0.207822
vt 0.006458 0.080727
vt 0.189444 0.001912
vt 0.401775 0.222146
vt 0.373422 0.045377
vt 0.355434 0.400287
vt 0.172835 0.466251
vt 0.001912 0.364637
vt 0.513383 0.335999
vt 0.534699 0.453287
vt 0.483806 0.228535
vt 0.597688 0.124587
vt 0.692062 0.133007
vt 0.707256 0.643117
vt 0.712535 0.772154
vt 0.709792 0.510344
vt 0.876379 0.469011
vt 0.998088 0.460496
vt 0.703432 0.646170
vt 0.681110 0.522313
vt 0.685218 0.774378
vt 0.552263 0.001912
vt 0.772232 0.072525
vt 0.405599 0.185487
vt 0.272408 0.869673
vt 0.131826 0.907253
vt 0.001912 0.592654
vt 0.053202 0.707170
vt 0.023086 0.475445
vt 0.167237 0.470075
vt 0.298831 0.488975
s 0
usemtl Material
f 26/1/1 11/2/1 4/3/1 12/4/1
f 25/5/2 14/6/2 8/7/2 15/8/2
f 24/9/3 17/10/3 6/11/3 18/12/3
f 23/13/4 20/14/4 2/15/4 10/16/4
f 22/17/5 16/18/5 5/19/5 19/20/5
f 21/21/6 11/22/6 2/23/6 20/24/6
f 17/25/6 21/21/6 20/24/6 6/26/6
f 8/27/7 14/28/7 21/21/7 17/25/7
f 14/28/8 4/29/8 11/22/8 21/21/8
f 9/30/9 22/17/9 19/20/9 1/31/9
f 3/32/10 13/33/10 22/17/10 9/30/10
f 13/33/11 7/34/11 16/18/11 22/17/11
f 19/35/12 23/13/12 10/16/12 1/36/12
f 5/37/13 18/38/13 23/13/13 19/35/13
f 18/38/14 6/39/14 20/14/14 23/13/14
f 16/40/15 24/9/15 18/12/15 5/41/15
f 7/42/16 15/8/16 24/9/16 16/40/16
f 15/8/17 8/7/17 17/10/17 24/9/17
f 13/33/18 25/43/18 15/44/18 7/34/18
f 3/32/19 12/45/19 25/43/19 13/33/19
f 12/4/20 4/3/20 14/46/20 25/47/20
f 9/48/21 26/1/21 12/4/21 3/49/21
f 1/50/22 10/51/22 26/1/22 9/48/22
f 10/51/23 2/52/23 11/2/23 26/1/23
