# Blender 4.5.0
# www.blender.org
mtllib fei_jian.mtl
o Cube
v 0.002181 0.013440 -0.003103
v 0.002043 0.063006 -0.001710
v -0.002181 0.013440 -0.003103
v -0.002043 0.063006 -0.001710
v 0.002181 0.013440 0.003103
v 0.002043 0.063006 0.001710
v -0.002181 0.013440 0.003103
v -0.002043 0.063006 0.001710
v 0.001330 0.000681 -0.007076
v 0.001449 0.001938 -0.004703
v 0.001295 0.073667 -0.005443
v 0.001679 0.068528 -0.002956
v -0.001331 0.000681 -0.007076
v -0.001450 0.001938 -0.004703
v -0.001747 0.073664 -0.005443
v -0.001679 0.068528 -0.002956
v 0.001330 0.000681 0.007076
v 0.001449 0.001938 0.004703
v 0.001295 0.073667 0.005443
v 0.001679 0.068528 0.002956
v -0.001331 0.000681 0.007076
v -0.001450 0.001938 0.004703
v -0.001747 0.073664 0.005443
v -0.001679 0.068528 0.002956
v -0.002181 0.013440 0.000000
v 0.002181 0.013440 -0.000000
v -0.001335 0.001946 0.000000
v 0.001335 0.001946 -0.000000
v 0.001815 0.007689 -0.003903
v 0.001815 0.007689 0.003903
v -0.001815 0.007689 0.003903
v -0.001815 0.007689 -0.003903
v -0.001815 0.007689 0.000000
v 0.001815 0.007689 -0.000000
v -0.001603 0.004355 0.004367
v -0.001593 0.004187 -0.004390
v -0.001596 0.005039 0.000000
v -0.001361 0.002046 0.001837
v -0.001527 0.003146 0.004535
v -0.001361 0.002046 -0.001837
v -0.001521 0.003062 -0.004547
v -0.001443 0.003808 0.000000
v -0.001595 0.003870 -0.001810
v -0.001600 0.003966 0.001813
v -0.001521 0.002872 -0.001734
v -0.001524 0.002895 0.001766
v -0.001403 0.001958 -0.001184
v -0.001557 0.004439 0.000000
v -0.001598 0.004452 0.001118
v -0.001403 0.001958 0.001184
v -0.000684 0.002627 -0.000010
v -0.001595 0.004399 -0.001122
v -0.001558 0.003295 -0.001843
v -0.001470 0.002507 -0.001516
v -0.000994 0.003251 -0.001299
v -0.001562 0.003349 0.001825
v -0.001473 0.002521 0.001511
v -0.001015 0.003406 0.001295
v -0.000987 0.002393 0.001364
v -0.001014 0.002378 -0.001364
v -0.001540 0.003790 -0.001133
v -0.001545 0.003829 0.001130
v -0.000024 0.200702 0.000000
v 0.000024 0.200702 -0.000000
v -0.000014 0.173812 -0.000654
v -0.000014 0.173812 0.000654
v 0.000014 0.173812 0.000654
v 0.000014 0.173812 -0.000654
v -0.000353 0.066440 -0.008269
v -0.000252 0.069250 -0.012009
v -0.000295 0.069354 0.012100
v -0.000458 0.065789 0.007676
v 0.000458 0.065789 0.007676
v 0.000295 0.069356 0.012098
v 0.000258 0.069279 -0.011855
v 0.000353 0.066442 -0.008264
v -0.000000 0.072305 -0.004747
v -0.000000 0.072305 0.004747
v -0.000392 0.066894 0.009582
v 0.000392 0.066935 0.009497
v -0.000000 0.061680 -0.007160
v -0.000000 0.061680 0.007160
v -0.000000 0.068953 0.012322
v -0.000741 0.067605 0.007622
v -0.000731 0.067927 -0.007281
v 0.000731 0.067927 -0.007281
v 0.000741 0.067605 0.007621
v -0.000000 0.067049 0.007548
v -0.000000 0.067049 -0.007548
v 0.000001 0.065331 0.011223
vn 1.0000 0.0028 -0.0000
vn -1.0000 0.0028 -0.0000
vn -1.0000 -0.0033 -0.0000
vn 1.0000 -0.0033 -0.0000
vn -0.8730 0.0122 0.4877
vn -0.0000 0.8837 -0.4680
vn -0.0000 0.8837 0.4680
vn 0.7998 0.0149 -0.6001
vn 0.9980 -0.0634 -0.0000
vn -0.0000 -1.0000 -0.0000
vn 0.8825 0.0093 -0.4702
vn -0.7451 0.0149 -0.6668
vn 0.9978 0.0659 -0.0000
vn -0.9980 -0.0634 -0.0000
vn -0.8825 0.0093 -0.4702
vn -0.9978 0.0659 -0.0000
vn 0.8825 0.0093 0.4702
vn 0.7451 0.0149 0.6668
vn -0.8825 0.0093 0.4702
vn -0.9966 -0.0751 -0.0353
vn -0.9980 -0.0627 -0.0085
vn 0.9975 -0.0668 0.0245
vn 0.9965 -0.0834 -0.0000
vn -0.9983 -0.0577 -0.0000
vn -0.9937 -0.0898 -0.0664
vn -0.9944 -0.0788 0.0706
vn -0.5272 0.0916 0.8448
vn -0.9820 -0.1885 -0.0128
vn -0.9981 -0.0608 0.0080
vn -0.9823 -0.1869 0.0161
vn -0.9404 -0.3383 -0.0363
vn -0.5474 0.0798 -0.8331
vn -0.8338 0.1967 -0.5159
vn -0.7187 0.6939 -0.0438
vn -0.9385 -0.3399 0.0611
vn -0.7220 0.6902 0.0487
vn -0.8506 0.1920 0.4894
vn -0.9963 -0.0775 0.0362
vn -0.8631 -0.4983 0.0817
vn -0.6439 -0.4286 0.6338
vn -0.9952 -0.0736 -0.0653
vn -0.5912 -0.4629 -0.6604
vn -0.8468 -0.5277 -0.0665
vn -0.9778 -0.1540 -0.1421
vn -0.9999 -0.0132 -0.0000
vn 0.9972 0.0745 -0.0000
vn 0.7998 0.0149 0.6001
vn -0.8730 0.0122 -0.4877
vn -0.9814 -0.1490 0.1207
vn -0.0000 0.0478 -0.9989
vn -0.0000 0.0478 0.9989
vn -0.0000 0.0243 -0.9997
vn -0.0000 0.0243 0.9997
vn -0.9658 -0.1212 0.2291
vn 0.2202 -0.7827 -0.5822
vn 0.0171 0.8278 -0.5608
vn 0.9776 -0.1518 -0.1460
vn -0.0018 -0.4859 -0.8740
vn 0.8603 -0.0909 0.5017
vn 0.9804 -0.1487 0.1293
vn -0.3450 0.0299 -0.9381
vn 0.3440 0.0301 -0.9385
vn -0.8181 -0.3884 -0.4241
vn 0.8181 -0.3884 -0.4241
vn 0.9833 -0.1137 0.1423
vn -0.8619 -0.0911 0.4988
vn 0.8214 -0.3822 0.4233
vn -0.8214 -0.3822 0.4233
vn 0.9686 -0.1182 0.2188
vn 0.9862 -0.1229 0.1110
vn -0.9858 -0.1258 0.1116
vn -0.9851 -0.1028 0.1382
vn 0.9975 -0.0668 -0.0245
vn -0.9956 -0.0823 0.0455
vn -0.9935 -0.0904 0.0698
vn -0.9980 -0.0623 -0.0084
vn -0.9980 -0.0623 0.0082
vn -0.9956 -0.0823 -0.0443
vn -0.9861 -0.1624 0.0365
vn -0.7152 0.6972 0.0480
vn -0.7152 0.6972 -0.0480
vn -0.9861 -0.1624 -0.0365
vn -0.9979 -0.0645 0.0109
vn -0.9979 -0.0645 -0.0109
vn 0.9899 -0.1399 -0.0244
vn 0.9899 -0.1399 0.0244
vn 0.9703 0.0095 -0.2419
vn -0.0000 -0.0006 -1.0000
vn 0.7451 0.0149 -0.6668
vn -0.9703 0.0095 -0.2419
vn 0.9703 0.0095 0.2419
vn -0.0000 -0.0006 1.0000
vn -0.7451 0.0149 0.6668
vn -0.9703 0.0095 0.2419
vn -0.9960 -0.0886 -0.0061
vn -0.9980 -0.0623 -0.0083
vn -0.9808 -0.1809 -0.0724
vn -0.9971 -0.0680 0.0333
vn -0.9980 -0.0623 0.0085
vn -0.9964 -0.0846 0.0068
vn -0.9971 -0.0680 -0.0333
vn -0.9808 -0.1821 0.0694
vn -0.9821 -0.1303 -0.1360
vn -0.9741 -0.1089 -0.1984
vn -0.9999 0.0136 -0.0000
vn 0.9999 0.0100 -0.0000
vn 0.0076 -0.2264 -0.9740
vn 0.0062 -0.7845 -0.6201
vn 0.9772 -0.0287 -0.2102
vn 0.9910 -0.0590 -0.1199
vn -0.0007 0.8393 0.5436
vn -0.0003 0.8393 0.5437
vn 0.9919 -0.0484 0.1176
vn 0.9810 -0.0202 0.1932
vn -0.9792 -0.0988 0.1773
vn -0.9835 -0.1123 0.1417
vt 0.194096 0.685864
vt 0.202712 0.933629
vt 0.218200 0.932575
vt 0.066219 0.684774
vt 0.039943 0.930661
vt 0.055431 0.931745
vt 0.070767 0.996959
vt 0.035903 0.988189
vt 0.000134 0.992016
vt 0.242332 0.995058
vt 0.206579 0.991147
vt 0.171700 0.999866
vt 0.275670 0.134238
vt 0.278189 0.634711
vt 0.278189 0.000134
vt 0.281181 0.845866
vt 0.294601 0.845264
vt 0.294601 0.831948
vt 0.281181 0.831358
vt 0.258087 0.320826
vt 0.258441 0.331453
vt 0.271754 0.331754
vt 0.272592 0.321155
vt 0.283616 0.636250
vt 0.283616 0.000134
vt 0.281181 0.134593
vt 0.204654 0.962397
vt 0.187225 0.934684
vt 0.294361 0.636519
vt 0.281181 0.637670
vt 0.281181 0.694076
vt 0.294361 0.692925
vt 0.198360 0.657984
vt 0.224134 0.961072
vt 0.230068 0.989568
vt 0.037490 0.637135
vt 0.012418 0.986542
vt 0.044936 0.655834
vt 0.168854 0.659993
vt 0.177026 0.687026
vt 0.037917 0.959423
vt 0.024455 0.929577
vt 0.013596 0.980971
vt 0.049148 0.683579
vt 0.074442 0.657899
vt 0.185174 0.963723
vt 0.183124 0.992763
vt 0.158398 0.642145
vt 0.057397 0.960786
vt 0.058536 0.977622
vt 0.042199 0.979131
vt 0.042358 0.976006
vt 0.036987 0.972695
vt 0.036776 0.975697
vt 0.014773 0.975400
vt 0.027168 0.980744
vt 0.027537 0.977881
vt 0.018437 0.958059
vt 0.045652 0.978662
vt 0.030892 0.978535
vt 0.031157 0.975487
vt 0.283797 0.933914
vt 0.283797 0.930066
vt 0.281181 0.930967
vt 0.281493 0.933076
vt 0.027563 0.982900
vt 0.026767 0.987042
vt 0.045493 0.981754
vt 0.045106 0.988326
vt 0.058949 0.983725
vt 0.045039 0.984005
vt 0.042902 0.986593
vt 0.042915 0.981520
vt 0.036560 0.978884
vt 0.036152 0.985076
vt 0.043639 0.985802
vt 0.041811 0.988516
vt 0.029913 0.981392
vt 0.029276 0.985701
vt 0.029992 0.987689
vt 0.028527 0.984815
vt 0.283719 0.929797
vt 0.283704 0.928650
vt 0.283719 0.924429
vt 0.281181 0.926327
vt 0.023214 0.657713
vt 0.000134 0.649684
vt 0.017784 0.664925
vt 0.034355 0.629387
vt 0.088687 0.633190
vt 0.154616 0.635294
vt 0.208947 0.631596
vt 0.272861 0.000134
vt 0.272861 0.636203
vt 0.275402 0.134583
vt 0.278458 0.000134
vt 0.278458 0.634802
vt 0.280912 0.134251
vt 0.097476 0.664516
vt 0.097124 0.673691
vt 0.107034 0.668889
vt 0.254967 0.706996
vt 0.242601 0.995625
vt 0.257467 0.998394
vt 0.255107 0.707022
vt 0.244458 0.124146
vt 0.242601 0.590965
vt 0.257818 0.590733
vt 0.244601 0.124144
vt 0.257467 0.626789
vt 0.257235 0.626746
vt 0.242601 0.000138
vt 0.242838 0.000134
vt 0.114699 0.677403
vt 0.121481 0.659771
vt 0.120489 0.657571
vt 0.282085 0.846606
vt 0.284695 0.869547
vt 0.284695 0.846135
vt 0.281181 0.697173
vt 0.293491 0.734343
vt 0.296135 0.734590
vt 0.296135 0.694345
vt 0.242332 0.651538
vt 0.220035 0.659726
vt 0.225405 0.666887
vt 0.253298 0.624157
vt 0.251854 0.626477
vt 0.250343 0.624211
vt 0.221577 0.664183
vt 0.221497 0.691095
vt 0.136597 0.670452
vt 0.146091 0.675533
vt 0.145770 0.666392
vt 0.281181 0.891248
vt 0.284428 0.906413
vt 0.283966 0.893383
vt 0.284428 0.888718
vt 0.281181 0.906682
vt 0.281181 0.912839
vt 0.281455 0.924160
vt 0.284375 0.909412
vt 0.281181 0.783499
vt 0.283675 0.806970
vt 0.281181 0.807225
vt 0.302407 0.786454
vt 0.281181 0.807494
vt 0.299324 0.831089
vt 0.296743 0.830439
vt 0.302326 0.807494
vt 0.122769 0.659285
vt 0.021646 0.689142
vt 0.021630 0.662299
vt 0.281181 0.759248
vt 0.288025 0.780107
vt 0.284826 0.783230
vt 0.302506 0.759248
vt 0.281181 0.738213
vt 0.302478 0.758979
vt 0.298957 0.756482
vt 0.302478 0.734858
vt 0.121750 0.661437
vt 0.128489 0.679128
vt 0.150027 0.695959
vt 0.093116 0.694144
vt 0.281181 0.943660
vt 0.281454 0.946952
vt 0.281181 0.952859
vt 0.281455 0.943391
vt 0.281181 0.937465
vt 0.281455 0.934183
vt 0.059363 0.989827
vt 0.272269 0.550058
vt 0.272269 0.332023
vt 0.258087 0.547480
vt 0.205781 0.638920
vt 0.272592 0.000134
vt 0.084873 0.640451
vt 0.107105 0.000134
vt 0.137709 0.000134
vt 0.284323 0.888449
vt 0.281181 0.869492
s 0
usemtl Material.001
f 2/1/1 26/2/1 1/3/1
f 8/4/2 25/5/2 7/6/2
f 21/7/3 27/8/3 13/9/3
f 9/10/4 28/11/4 17/12/4
f 67/13/5 19/14/5 64/15/5
f 10/16/6 9/17/6 13/18/6 14/19/6
f 22/20/7 21/21/7 17/22/7 18/23/7
f 15/24/8 63/25/8 65/26/8
f 34/27/9 26/2/9 5/28/9
f 13/29/10 9/30/10 17/31/10 21/32/10
f 12/33/11 29/34/11 10/35/11
f 77/36/12 14/37/12 16/38/12
f 20/39/13 6/40/13 2/1/13 12/33/13
f 33/41/14 25/5/14 3/42/14
f 41/43/15 16/38/15 14/37/15
f 16/38/16 4/44/16 8/4/16 24/45/16
f 30/46/17 20/39/17 18/47/17
f 78/48/18 18/47/18 20/39/18
f 24/45/19 31/49/19 35/50/19
f 33/41/14 31/49/14 7/6/14
f 62/51/20 49/52/20 37/53/20 48/54/20
f 36/55/21 53/56/21 43/57/21
f 34/27/9 29/34/9 1/3/9
f 28/11/22 10/35/22 29/34/22
f 28/11/23 34/27/23 30/46/23
f 32/58/24 43/57/24 33/41/24
f 44/59/25 33/41/25 49/52/25
f 61/60/26 52/61/26 43/57/26 53/56/26
f 60/62/27 55/63/27 45/64/27 54/65/27
f 45/66/28 41/43/28 40/67/28
f 56/68/29 35/50/29 44/59/29
f 38/69/30 39/70/30 46/71/30
f 59/72/31 58/73/31 42/74/31 51/75/31
f 57/76/32 46/71/32 58/73/32 59/72/32
f 38/69/33 57/76/33 59/72/33 50/77/33
f 50/77/34 59/72/34 51/75/34 27/8/34
f 51/75/35 42/74/35 55/78/35 60/79/35
f 27/8/36 51/75/36 60/79/36 47/80/36
f 47/80/37 60/79/37 54/81/37 40/67/37
f 48/54/38 37/53/38 52/61/38 61/60/38
f 42/74/39 48/54/39 61/60/39 55/78/39
f 55/78/40 61/60/40 53/56/40 45/66/40
f 56/68/41 44/59/41 49/52/41 62/51/41
f 46/82/42 56/83/42 62/84/42 58/85/42
f 58/73/43 62/51/43 48/54/43 42/74/43
f 85/86/44 70/87/44 69/88/44
f 15/89/45 24/45/45 23/90/45
f 19/91/46 12/33/46 11/92/46
f 63/93/47 23/94/47 66/95/47
f 64/96/48 11/97/48 68/98/48
f 84/99/49 72/100/49 79/101/49
f 68/102/50 11/103/50 15/104/50 65/105/50
f 66/106/51 23/107/51 19/108/51 67/109/51
f 63/110/52 64/111/52 68/102/52 65/105/52
f 63/112/53 66/106/53 67/109/53 64/113/53
f 90/114/54 83/115/54 71/116/54 79/101/54
f 75/117/55 69/118/55 70/119/55
f 11/120/56 75/121/56 70/122/56 15/123/56
f 75/124/57 86/125/57 76/126/57
f 74/127/58 83/128/58 71/129/58
f 89/130/59 81/131/59 76/126/59 86/125/59
f 80/132/60 73/133/60 87/134/60
f 88/135/61 82/136/61 72/137/61 84/138/61
f 87/139/62 73/140/62 82/141/62 88/142/62
f 20/143/63 87/144/63 88/145/63 78/146/63
f 78/147/64 88/148/64 84/149/64 24/150/64
f 87/134/65 74/151/65 80/132/65
f 85/86/66 69/88/66 81/152/66 89/153/66
f 16/154/67 85/155/67 89/156/67 77/157/67
f 77/158/68 89/159/68 86/160/68 12/161/68
f 80/132/69 74/151/69 83/162/69 90/163/69
f 73/133/70 80/132/70 90/163/70 82/164/70
f 82/165/71 90/114/71 79/101/71 72/100/71
f 71/116/72 84/99/72 79/101/72
f 34/27/9 5/28/9 30/46/9
f 34/27/9 1/3/9 26/2/9
f 28/11/23 29/34/23 34/27/23
f 28/11/73 30/46/73 18/47/73
f 33/41/14 3/42/14 32/58/14
f 33/41/14 7/6/14 25/5/14
f 33/41/74 52/61/74 37/53/74
f 52/61/75 33/41/75 43/57/75
f 43/57/76 32/58/76 36/55/76
f 31/49/77 44/59/77 35/50/77
f 49/52/78 33/41/78 37/53/78
f 31/49/24 33/41/24 44/59/24
f 26/2/1 6/40/1 5/28/1
f 6/40/1 26/2/1 2/1/1
f 25/5/2 4/44/2 3/42/2
f 4/44/2 25/5/2 8/4/2
f 13/9/79 40/67/79 14/37/79
f 40/166/80 47/167/80 27/168/80
f 27/169/81 50/170/81 38/171/81
f 38/69/82 21/7/82 22/172/82
f 13/9/83 27/8/83 40/67/83
f 27/8/84 21/7/84 38/69/84
f 17/12/85 28/11/85 18/47/85
f 28/11/86 9/10/86 10/35/86
f 29/34/11 12/33/11 1/3/11
f 1/3/87 12/33/87 2/1/87
f 14/173/88 77/174/88 10/175/88
f 10/35/89 77/176/89 12/33/89
f 16/38/90 3/42/90 4/44/90
f 32/58/15 16/38/15 36/55/15
f 36/55/15 16/38/15 41/43/15
f 16/38/15 32/58/15 3/42/15
f 20/39/91 5/28/91 6/40/91
f 5/28/17 20/39/17 30/46/17
f 18/23/92 78/177/92 22/20/92
f 22/172/93 78/178/93 24/45/93
f 8/4/94 7/6/94 24/45/94
f 24/45/19 39/70/19 22/172/19
f 35/50/19 39/70/19 24/45/19
f 31/49/19 24/45/19 7/6/19
f 53/56/95 41/43/95 45/66/95
f 41/43/96 53/56/96 36/55/96
f 54/81/97 45/66/97 40/67/97
f 40/67/98 41/43/98 14/37/98
f 35/50/99 56/68/99 39/70/99
f 39/70/100 56/68/100 46/71/100
f 39/70/101 38/69/101 22/172/101
f 38/69/102 46/71/102 57/76/102
f 70/87/103 85/86/103 15/89/103
f 15/89/104 85/86/104 16/38/104
f 24/45/45 15/89/45 16/38/45
f 15/89/105 23/90/105 63/179/105
f 12/33/46 19/91/46 20/39/46
f 19/91/106 11/92/106 64/180/106
f 81/181/107 69/118/107 76/182/107
f 76/182/108 69/118/108 75/117/108
f 86/125/109 11/92/109 12/33/109
f 11/92/110 86/125/110 75/124/110
f 71/129/111 19/108/111 23/107/111
f 19/108/112 71/129/112 74/127/112
f 74/151/113 87/134/113 19/91/113
f 19/91/114 87/134/114 20/39/114
f 84/99/115 23/90/115 24/45/115
f 23/90/116 84/99/116 71/116/116
